PathFileType	4	(X/Y/Z)	/Users/itak/Documents/Research/Walk-IL/dataset/trc/00214_00009.trc
DataRate	CameraRate	NumFrames	NumMarkers	Units	OrigDataRate	OrigDataStartFrame	OrigNumFrames
100.000000	100.000000	4	54	mm	100.000000	126	505
Frame#	Time	RPSI			LPSI			L3			STRN			T10			C7			CLAV			RBAK			LBAK			LSHO			LUPA			LAEL			LAOL			LWTS			LWPS			LFRA			LIFD			LHPS			LHTS			RSHO			RUPA			RAEL			RAOL			RWPS			RFRA			RIFD			RHPS			RBHD			LFHD			RFHD			LBHD			LHIP			RHIP			RASI			LASI			LKNE			LTHI			LANK			LTIP			LTOE			LMT1			LMT5			LHEE			RKNE			RTHI			RANK			RTIP			RTOE			RMT5			RHEE			RWTS			RHTS			RMT1			*53			
		X1	Y1	Z1	X2	Y2	Z2	X3	Y3	Z3	X4	Y4	Z4	X5	Y5	Z5	X6	Y6	Z6	X7	Y7	Z7	X8	Y8	Z8	X9	Y9	Z9	X10	Y10	Z10	X11	Y11	Z11	X12	Y12	Z12	X13	Y13	Z13	X14	Y14	Z14	X15	Y15	Z15	X16	Y16	Z16	X17	Y17	Z17	X18	Y18	Z18	X19	Y19	Z19	X20	Y20	Z20	X21	Y21	Z21	X22	Y22	Z22	X23	Y23	Z23	X24	Y24	Z24	X25	Y25	Z25	X26	Y26	Z26	X27	Y27	Z27	X28	Y28	Z28	X29	Y29	Z29	X30	Y30	Z30	X31	Y31	Z31	X32	Y32	Z32	X33	Y33	Z33	X34	Y34	Z34	X35	Y35	Z35	X36	Y36	Z36	X37	Y37	Z37	X38	Y38	Z38	X39	Y39	Z39	X40	Y40	Z40	X41	Y41	Z41	X42	Y42	Z42	X43	Y43	Z43	X44	Y44	Z44	X45	Y45	Z45	X46	Y46	Z46	X47	Y47	Z47	X48	Y48	Z48	X49	Y49	Z49	X50	Y50	Z50	X51	Y51	Z51	X52	Y52	Z52	X53	Y53	Z53	X54	Y54	Z54	

127	1.26	-1665.992553710938	1053.919677734375	-133.4246673583984	-1665.861694335938	1059.16748046875	-254.2963104248047	-1664.6982421875	1144.384033203125	-207.6737518310547	-1404.199584960938	1300.232543945312	-211.6887512207031	-1661.5048828125	1272.811157226562	-203.2563323974609	-1570.1669921875	1525.211669921875	-207.1306610107422	-1416.81396484375	1419.871215820312	-209.1665802001953	-1660.556762695312	1396.783813476562	-129.3847198486328	-1596.296264648438	1491.120361328125	-318.6425476074219	-1506.81298828125	1480.05615234375	-374.6176147460938	-1547.518188476562	1366.274780273438	-453.0241394042969	-1552.499389648438	1156.153930664062	-481.8848266601562	-1628.034423828125	1146.11279296875	-439.6766357421875	-1475.161743164062	920.085205078125	-417.1764526367188	-1499.142456054688	902.2453002929688	-496.7915344238281	-1535.23779296875	1047.560180664062	-493.0969543457031	-1473.03759765625	721.368896484375	-425.2319641113281	-1485.024536132812	813.23486328125	-490.3325805664062	-1434.682006835938	822.5178833007812	-433.6383666992188	-1509.92041015625	1474.462280273438	-40.22174072265625	-1530.722778320312	1413.288696289062	29.57692527770996	-1561.129760742188	1133.481079101562	75.27386474609375	-1609.39697265625	1128.578369140625	-6.741596698760986	-1485.496948242188	899.7763061523438	83.93167114257812	-1535.720703125	1063.2177734375	83.21611022949219	-1434.880981445312	718.2997436523438	5.40924072265625	-1450.05712890625	790.9793701171875	78.66355895996094	-1508.028564453125	1676.007690429688	-168.8463134765625	-1299.032836914062	1687.377807617188	-259.0345458984375	-1302.658325195312	1693.593872070312	-159.4505920410156	-1457.8984375	1668.282958984375	-299.5705261230469	-1563.332153320312	993.1620483398438	-392.2213134765625	-1573.69873046875	1006.8251953125	-24.44708251953125	-1472.657470703125	1045.591674804688	-59.10207366943359	-1461.82861328125	1030.153198242188	-340.9150085449219	-1418.50537109375	518.9283447265625	-336.3555297851562	-1455.028564453125	659.9083251953125	-366.2972717285156	-1611.459350585938	69.15959930419922	-344.4819641113281	-1516.335205078125	305.9868774414062	-349.93115234375	-1401.56298828125	55.64340209960938	-293.05908203125	-1467.857666015625	51.61720275878906	-249.0850372314453	-1486.516357421875	54.44711303710938	-361.53857421875	-1672.021606445312	84.04983520507812	-293.5343322753906	-1576.634399414062	512.4420776367188	-79.33734893798828	-1531.859619140625	777.4979858398438	-23.36817359924316	-1661.224853515625	36.37458419799805	-140.5572814941406	-1577.822631835938	398.1865234375	-101.5966491699219	-1447.3828125	51.93605422973633	-143.7555084228516	-1557.229370117188	39.63737106323242	-94.13644409179688	-1711.536987304688	36.33390808105469	-210.5131225585938	-1441.7490234375	912.6015014648438	12.35494709014893	-1404.468505859375	790.1085205078125	21.93035316467285	-1492.368041992188	47.5576171875	-195.4417266845703	nan	nan	nan	
128	1.27	-1664.417846679688	1054.065795898438	-132.5742492675781	-1664.675903320312	1059.268920898438	-253.4461364746094	-1663.1689453125	1144.610595703125	-206.6882019042969	-1402.145629882812	1299.79931640625	-212.0672302246094	-1659.480102539062	1273.007568359375	-202.1956787109375	-1567.473510742188	1525.160278320312	-206.4990997314453	-1414.41845703125	1419.452880859375	-209.3961029052734	-1657.865844726562	1396.957153320312	-128.3865661621094	-1594.272827148438	1491.22314453125	-317.8743591308594	-1505.138916015625	1480.011474609375	-374.4034729003906	-1546.9033203125	1366.354858398438	-452.5867614746094	-1553.532104492188	1156.271484375	-481.2617492675781	-1628.713012695312	1146.84228515625	-438.3890075683594	-1478.410400390625	919.0267944335938	-417.6817932128906	-1503.208251953125	901.81591796875	-497.2140808105469	-1537.507568359375	1047.539184570312	-492.8059997558594	-1478.814086914062	720.552490234375	-426.3892517089844	-1490.246337890625	812.6107177734375	-491.1444702148438	-1439.984985351562	820.9254150390625	-434.63525390625	-1506.578491210938	1474.155029296875	-39.95186614990234	-1527.158813476562	1413.015747070312	29.92055702209473	-1557.771606445312	1133.29541015625	75.91993713378906	-1606.356811523438	1128.396118164062	-5.886753082275391	-1481.87548828125	899.6248779296875	84.08025360107422	-1532.284545898438	1062.997436523438	83.73313140869141	-1430.294555664062	717.9478149414062	5.754347324371338	-1446.262451171875	790.8983154296875	78.61624908447266	-1504.945068359375	1675.864135742188	-168.8220672607422	-1295.829345703125	1686.597534179688	-258.8126525878906	-1299.5439453125	1692.77001953125	-159.2086944580078	-1454.726440429688	1668.048583984375	-299.4983215332031	-1562.436279296875	993.4692993164062	-391.7014465332031	-1572.046630859375	1006.629272460938	-23.85237121582031	-1470.888061523438	1045.471435546875	-58.72476959228516	-1460.858520507812	1030.194091796875	-340.5108337402344	-1411.732666015625	520.5403442382812	-335.178466796875	-1450.03564453125	661.2239379882812	-365.3508911132812	-1606.64501953125	71.50456237792969	-342.9561767578125	-1510.170166015625	307.7847595214844	-348.4741821289062	-1396.8935546875	57.77277374267578	-291.0794067382812	-1463.25439453125	53.71175765991211	-247.2743225097656	-1481.749633789062	56.67063903808594	-359.8214111328125	-1667.333740234375	86.54067230224609	-292.1648864746094	-1576.190307617188	512.3185424804688	-79.10720062255859	-1530.924682617188	777.3766479492188	-22.75984001159668	-1661.26708984375	36.33428192138672	-140.5151214599609	-1577.643188476562	398.1059265136719	-101.3572998046875	-1447.408203125	51.96099853515625	-143.7698669433594	-1557.254760742188	39.62614059448242	-94.11591339111328	-1711.566772460938	36.31497573852539	-210.4904022216797	-1438.379272460938	912.58740234375	12.41833209991455	-1400.851196289062	790.2237548828125	21.75688362121582	-1492.43505859375	47.58005142211914	-195.4536437988281	nan	nan	nan	
129	1.28	-1662.777954101562	1054.216674804688	-131.8116149902344	-1663.373901367188	1059.401245117188	-252.6685028076172	-1661.54345703125	1144.869506835938	-205.7593688964844	-1399.981567382812	1299.378295898438	-212.4613494873047	-1657.370483398438	1273.226684570312	-201.1531219482422	-1564.674438476562	1525.12451171875	-205.8786163330078	-1411.918579101562	1419.0439453125	-209.6544036865234	-1655.051879882812	1397.14404296875	-127.3735504150391	-1592.159790039062	1491.340087890625	-317.0963439941406	-1503.390502929688	1479.970336914062	-374.1900939941406	-1546.259643554688	1366.461059570312	-452.150146484375	-1554.557006835938	1156.437255859375	-480.6593017578125	-1629.390991210938	1147.622802734375	-437.1177673339844	-1481.75390625	918.0633544921875	-418.1708679199219	-1507.2646484375	901.4774169921875	-497.6024780273438	-1539.786376953125	1047.586303710938	-492.5164489746094	-1484.562133789062	719.85302734375	-427.4463806152344	-1495.4482421875	812.1052856445312	-491.8992614746094	-1445.74267578125	819.1207275390625	-435.7749328613281	-1503.096069335938	1473.863647460938	-39.70094680786133	-1523.433349609375	1412.74951171875	30.24372863769531	-1554.21923828125	1133.11279296875	76.53858947753906	-1603.164306640625	1128.228149414062	-5.035895824432373	-1478.066284179688	899.4722290039062	84.14161682128906	-1528.642944335938	1062.788452148438	84.19761657714844	-1425.620727539062	717.6644897460938	5.898589134216309	-1442.269653320312	790.8092651367188	78.44523620605469	-1501.782592773438	1675.72265625	-168.8078460693359	-1292.563720703125	1685.86572265625	-258.6270141601562	-1296.347534179688	1691.987182617188	-159.0082550048828	-1451.488037109375	1667.826416015625	-299.4457092285156	-1561.37353515625	993.8402099609375	-391.2299194335938	-1570.370361328125	1006.418029785156	-23.30459022521973	-1469.076171875	1045.354248046875	-58.34585952758789	-1459.7158203125	1030.290771484375	-340.0732116699219	-1405.069213867188	522.2369995117188	-333.9972534179688	-1445.113159179688	662.5899047851562	-364.4921264648438	-1600.86767578125	73.50347137451172	-341.3215637207031	-1503.640869140625	309.4570617675781	-346.9773864746094	-1391.241821289062	59.93094253540039	-288.8387756347656	-1457.726806640625	55.77382278442383	-245.2514801025391	-1475.966796875	58.79403686523438	-357.8892517089844	-1661.762939453125	88.60023498535156	-290.7261962890625	-1575.623413085938	512.2059326171875	-78.92458343505859	-1529.959350585938	777.2882690429688	-22.12424468994141	-1661.299682617188	36.30533599853516	-140.4850311279297	-1577.349853515625	398.0149536132812	-101.1364135742188	-1447.42626953125	51.96834564208984	-143.7868194580078	-1557.267822265625	39.62269973754883	-94.10342407226562	-1711.590454101562	36.30007553100586	-210.4724884033203	-1434.872924804688	912.5777587890625	12.35450553894043	-1397.056762695312	790.3511352539062	21.44114303588867	-1492.49560546875	47.58723831176758	-195.4641723632812	nan	nan	nan	
130	1.29	-1661.07177734375	1054.371337890625	-131.1383209228516	-1661.959716796875	1059.558959960938	-251.969970703125	-1659.820678710938	1145.16064453125	-204.8960723876953	-1397.704467773438	1298.964721679688	-212.8590850830078	-1655.175537109375	1273.468139648438	-200.1392822265625	-1561.762329101562	1525.1015625	-205.2685699462891	-1409.308471679688	1418.642944335938	-209.9362640380859	-1652.115356445312	1397.346313476562	-126.3494033813477	-1589.94921875	1491.469360351562	-316.30810546875	-1501.559204101562	1479.932495117188	-373.981689453125	-1545.582641601562	1366.593872070312	-451.7116088867188	-1555.559448242188	1156.65478515625	-480.0700988769531	-1630.068969726562	1148.456665039062	-435.863037109375	-1485.127685546875	917.2294311523438	-418.6409606933594	-1511.298828125	901.2319946289062	-497.9514770507812	-1542.069213867188	1047.703247070312	-492.2278747558594	-1490.255981445312	719.2631225585938	-428.3992004394531	-1500.60546875	811.7181396484375	-492.58740234375	-1451.884155273438	817.1572265625	-437.0351867675781	-1499.476440429688	1473.587768554688	-39.46885299682617	-1519.556274414062	1412.491455078125	30.54671859741211	-1550.475341796875	1132.930541992188	77.1263427734375	-1599.819702148438	1128.065795898438	-4.200204849243164	-1474.065551757812	899.3194580078125	84.11663818359375	-1524.789184570312	1062.590942382812	84.61135864257812	-1420.879150390625	717.4434204101562	5.841633796691895	-1438.07275390625	790.7159423828125	78.15029144287109	-1498.532348632812	1675.577270507812	-168.7994842529297	-1289.228149414062	1685.174926757812	-258.4786682128906	-1293.059448242188	1691.241088867188	-158.8516235351562	-1448.177978515625	1667.61083984375	-299.4109802246094	-1560.128295898438	994.2623291015625	-390.7990417480469	-1568.663818359375	1006.199951171875	-22.80623245239258	-1467.23486328125	1045.217895507812	-57.96672821044922	-1458.40185546875	1030.433349609375	-339.5965576171875	-1398.535278320312	524.0054321289062	-332.8228454589844	-1440.271240234375	663.9955444335938	-363.70263671875	-1594.093139648438	75.09722137451172	-339.5847473144531	-1496.746337890625	310.9703369140625	-345.4525146484375	-1384.57470703125	62.04808044433594	-286.4572143554688	-1451.202514648438	57.72747421264648	-243.0954895019531	-1469.155639648438	60.72612762451172	-355.8074951171875	-1655.252319335938	90.17835998535156	-289.2040100097656	-1574.941772460938	512.0999145507812	-78.77179718017578	-1528.917724609375	777.2155151367188	-21.53166389465332	-1661.322631835938	36.28665542602539	-140.4652709960938	-1576.933715820312	397.9107360839844	-100.9322052001953	-1447.441162109375	51.96042251586914	-143.8055114746094	-1557.269409179688	39.62114334106445	-94.09912109375	-1711.608276367188	36.28928756713867	-210.4584197998047	-1431.211791992188	912.5761108398438	12.16919040679932	-1393.095336914062	790.4768676757812	20.97869300842285	-1492.54931640625	47.58192825317383	-195.4752960205078	nan	nan	nan	
